<?xml version="1.0" standalone="no"?>
<!DOCTYPE svg PUBLIC "-//W3C//DTD SVG 20010904//EN"
 "http://www.w3.org/TR/2001/REC-SVG-20010904/DTD/svg10.dtd">
<svg version="1.0" xmlns="http://www.w3.org/2000/svg"
 width="2048.000000pt" height="2048.000000pt" viewBox="0 0 2048.000000 2048.000000"
 preserveAspectRatio="xMidYMid meet">
<metadata>
Created by potrace 1.14, written by Peter Selinger 2001-2017
</metadata>
<g transform="translate(0.000000,2048.000000) scale(0.100000,-0.100000)"
fill="#000000" stroke="none">
<path d="M0 10240 l0 -10240 10240 0 10240 0 0 10240 0 10240 -10240 0 -10240
0 0 -10240z m15168 7665 c-3 -3 -9 2 -12 12 -6 14 -5 15 5 6 7 -7 10 -15 7
-18z m-877 -3 c-7 -2 -18 1 -23 6 -8 8 -4 9 13 5 13 -4 18 -8 10 -11z m857 -4
c10 -12 10 -18 1 -24 -8 -4 -9 -3 -5 4 4 7 1 12 -9 12 -9 0 -13 -4 -10 -10 3
-5 2 -10 -3 -10 -18 0 -20 12 -4 29 10 10 17 17 17 17 1 -1 6 -8 13 -18z
m-866 -15 c-6 -2 -10 -9 -6 -14 3 -5 1 -9 -5 -9 -5 0 -12 4 -15 9 -6 9 10 19
29 19 6 0 4 -2 -3 -5z m-10515 -29 c-3 -3 -12 -4 -19 -1 -8 3 -5 6 6 6 11 1
17 -2 13 -5z m-3 -26 c-3 -4 2 -8 10 -8 9 0 16 -4 16 -10 0 -5 -7 -6 -17 -3
-12 5 -14 3 -8 -7 5 -9 4 -11 -3 -6 -7 4 -12 1 -12 -6 0 -10 -3 -9 -10 2 -6 9
-5 17 3 22 7 5 2 8 -13 9 -22 0 -23 1 -5 8 25 10 45 10 39 -1z m-661 -71 c4 3
7 1 7 -5 0 -7 -7 -12 -16 -12 -8 0 -12 -4 -9 -10 3 -5 2 -10 -3 -10 -11 0 -23
36 -14 44 3 3 10 1 17 -4 7 -5 15 -7 18 -3z m6523 -98 c20 -22 13 -43 -20 -63
-14 -9 -21 -6 -36 12 -10 12 -17 30 -15 40 2 9 4 19 4 22 2 15 51 7 67 -11z
m-6529 -21 c-3 -8 -6 -5 -6 6 -1 11 2 17 5 13 3 -3 4 -12 1 -19z m2400 -50
c-6 -22 -5 -22 8 -5 13 18 14 18 24 -1 11 -21 -10 -62 -33 -62 -23 0 -48 37
-41 61 5 15 10 18 15 9 5 -8 9 -8 13 4 10 24 20 19 14 -6z m1401 -23 c26 -31
28 -57 5 -96 -25 -43 -93 -50 -130 -14 -31 31 -23 102 15 132 25 20 83 8 110
-22z m5509 18 c2 -5 -3 -15 -10 -22 -11 -9 -17 -8 -27 3 -6 9 -9 19 -6 25 8
12 39 8 43 -6z m-4002 -23 c12 -39 -21 -68 -56 -50 -23 13 -25 43 -4 63 18 19
52 11 60 -13z m-5298 -2 c-3 -8 -6 -5 -6 6 -1 11 2 17 5 13 3 -3 4 -12 1 -19z
m8322 -16 c19 -27 19 -30 4 -53 -9 -13 -17 -25 -17 -25 -1 -1 -11 -5 -23 -8
-17 -5 -29 -1 -48 18 -30 30 -31 45 -5 74 29 31 64 28 89 -6z m5198 6 c-3 -8
-6 -5 -6 6 -1 11 2 17 5 13 3 -3 4 -12 1 -19z m-3211 -19 c24 -27 8 -54 -32
-54 -23 0 -30 5 -32 24 -3 15 3 30 14 38 24 17 28 17 50 -8z m1204 -3 c0 -3
-4 -8 -10 -11 -5 -3 -10 -1 -10 4 0 6 5 11 10 11 6 0 10 -2 10 -4z m-11503
-28 c-3 -8 -6 -5 -6 6 -1 11 2 17 5 13 3 -3 4 -12 1 -19z m13500 -50 c-3 -8
-6 -5 -6 6 -1 11 2 17 5 13 3 -3 4 -12 1 -19z m-4872 -18 c3 -5 -1 -10 -10
-10 -9 0 -13 5 -10 10 3 6 8 10 10 10 2 0 7 -4 10 -10z m6785 -29 c22 -42 -25
-78 -60 -46 -11 10 -18 22 -17 28 7 38 59 50 77 18z m-1923 -23 c-3 -8 -6 -5
-6 6 -1 11 2 17 5 13 3 -3 4 -12 1 -19z m-11899 -10 c16 -16 15 -43 -3 -58
-12 -10 -22 -9 -52 3 -21 9 -32 16 -25 16 6 1 12 9 12 19 0 10 3 22 7 25 11
11 48 8 61 -5z m9850 -28 c27 -26 28 -54 2 -80 -27 -27 -52 -25 -79 4 -17 18
-21 30 -15 48 15 48 57 61 92 28z m-12618 -5 c1 17 20 -19 20 -37 0 -25 -35
-41 -60 -28 -27 15 -26 54 3 67 15 7 24 7 29 -1 5 -6 8 -7 8 -1z m11152 -19
c10 -15 -2 -34 -20 -32 -16 3 -18 8 -13 36 1 12 23 9 33 -4z m3505 -28 c-3 -7
-5 -2 -5 12 0 14 2 19 5 13 2 -7 2 -19 0 -25z m1249 -20 c3 -12 -1 -27 -12
-39 -21 -24 -26 -24 -52 0 -22 18 -31 37 -12 26 6 -3 7 1 4 9 -4 11 2 19 17
25 30 11 47 5 55 -21z m-6669 -24 c8 -20 -13 -42 -27 -28 -12 12 -3 44 11 44
5 0 12 -7 16 -16z m4747 -7 c36 -26 -4 -84 -41 -61 -24 15 -27 38 -8 58 20 19
26 20 49 3z m663 -29 c-3 -8 -6 -5 -6 6 -1 11 2 17 5 13 3 -3 4 -12 1 -19z
m-6147 -19 c-11 -20 -40 -16 -40 6 0 15 19 24 37 18 9 -4 10 -10 3 -24z m2254
12 c9 -15 -23 -36 -36 -23 -5 5 -7 15 -4 21 9 13 33 14 40 2z m-6310 -37 c9
-3 13 -10 10 -15 -3 -5 0 -9 5 -9 18 0 12 -26 -9 -45 -18 -17 -21 -17 -45 -1
-30 20 -31 30 -5 56 22 22 22 22 44 14z m10473 -20 c-3 -3 -12 -4 -19 -1 -8 3
-5 6 6 6 11 1 17 -2 13 -5z m-8657 -22 c0 -24 -8 -32 -26 -25 -17 6 -18 30 -1
36 22 9 27 7 27 -11z m8388 -10 c2 -14 -2 -22 -11 -22 -17 0 -30 27 -21 41 9
16 29 4 32 -19z m-6869 -56 c8 -10 8 -16 -2 -24 -17 -14 -42 2 -34 22 8 20 21
20 36 2z m-8399 -21 c17 -20 9 -48 -19 -61 -27 -14 -46 -3 -53 32 -7 36 47 59
72 29z m6017 -35 c16 -25 7 -49 -23 -56 -40 -10 -76 38 -39 52 8 4 12 10 9 15
-3 5 5 9 18 9 13 0 29 -9 35 -20z m6333 -10 c-13 -8 -12 -10 3 -10 23 0 19
-38 -5 -54 -21 -13 -51 2 -56 26 -4 21 25 48 51 48 18 0 19 -2 7 -10z m-10483
-22 c-3 -8 -6 -5 -6 6 -1 11 2 17 5 13 3 -3 4 -12 1 -19z m31 -34 c26 -18 28
-37 7 -57 -8 -8 -11 -18 -7 -22 4 -4 -3 -2 -15 4 -13 6 -23 8 -23 4 0 -13 -29
32 -30 46 0 12 27 40 40 41 3 0 16 -7 28 -16z m2802 -117 c0 -2 -10 -12 -22
-23 l-23 -19 19 23 c18 21 26 27 26 19z m-1000 -56 c0 -13 -23 -28 -42 -28
-13 0 -14 4 -5 19 12 18 47 25 47 9z m800 -129 c0 -5 -6 -16 -13 -26 -12 -16
-14 -16 -26 -2 -7 8 -10 20 -6 26 7 12 45 14 45 2z m-3784 -16 c19 -20 18 -43
-4 -55 -33 -17 -57 -7 -58 25 -2 42 32 59 62 30z m12924 -37 c9 -16 8 -25 -6
-40 -20 -23 -40 -24 -60 -5 -19 20 -18 43 4 55 27 16 50 13 62 -10z m2550 -53
c0 -11 -19 -15 -25 -6 -3 5 1 10 9 10 9 0 16 -2 16 -4z m-11227 -62 c9 -10 -4
-34 -18 -34 -17 0 -28 17 -20 30 7 11 28 13 38 4z m9331 -10 c36 -36 -1 -89
-44 -62 -24 16 -26 35 -3 60 20 22 27 22 47 2z m-1924 -4 c0 -5 -4 -10 -10
-10 -5 0 -10 5 -10 10 0 6 5 10 10 10 6 0 10 -4 10 -10z m498 -47 c5 -17 -26
-29 -40 -15 -6 6 -7 15 -3 22 9 14 37 9 43 -7z m-10738 -84 c0 -14 -30 -23
-41 -12 -5 5 -7 17 -3 26 5 13 10 14 25 6 10 -5 19 -14 19 -20z m14968 6 c12
-14 22 -34 22 -45 0 -24 -38 -70 -57 -70 -43 0 -105 67 -73 78 6 2 8 8 5 12
-9 15 33 50 58 50 13 0 33 -11 45 -25z m-16638 12 c0 -2 -10 -12 -22 -23 l-23
-19 19 23 c18 21 26 27 26 19z m1132 -21 c-2 -5 2 -12 8 -16 19 -12 -6 -50
-33 -50 -44 0 -64 49 -29 69 20 12 59 10 54 -3z m14014 -11 c4 -15 1 -32 -6
-40 -14 -17 -55 -21 -45 -5 3 6 -1 10 -9 10 -9 0 -13 7 -11 20 6 32 14 40 40
40 18 0 26 -7 31 -25z m-13603 8 c-7 -2 -21 -2 -30 0 -10 3 -4 5 12 5 17 0 24
-2 18 -5z m-176 -9 c-3 -3 -12 -4 -19 -1 -8 3 -5 6 6 6 11 1 17 -2 13 -5z
m-160 -10 c-3 -3 -12 -4 -19 -1 -8 3 -5 6 6 6 11 1 17 -2 13 -5z m1258 -17
c27 -21 13 -67 -21 -67 -13 0 -27 6 -30 14 -12 31 -10 51 5 58 23 10 25 9 46
-5z m13498 6 c-57 -2 -149 -2 -205 0 -57 1 -11 3 102 3 113 0 159 -2 103 -3z
m165 0 c-10 -2 -28 -2 -40 0 -13 2 -5 4 17 4 22 1 32 -1 23 -4z m-16248 -76
c0 -2 -10 -12 -22 -23 l-23 -19 19 23 c18 21 26 27 26 19z m13572 -79 c7 -19
-2 -38 -18 -38 -9 0 -12 5 -9 10 3 6 1 10 -6 10 -8 0 -8 4 1 15 15 18 26 19
32 3z m-10292 -103 c0 -48 -53 -61 -72 -19 -11 23 -10 29 11 45 18 15 26 16
42 6 10 -6 19 -21 19 -32z m11388 -12 c5 -17 -26 -29 -40 -15 -6 6 -7 15 -3
22 9 14 37 9 43 -7z m-13198 -146 c14 -8 24 -19 23 -25 -2 -7 2 -12 7 -12 6 0
10 -15 10 -34 0 -75 -93 -114 -145 -61 -36 35 -31 108 6 120 11 4 17 11 14 16
-9 14 57 11 85 -4z m-1550 -127 c0 -5 -4 -10 -10 -10 -5 0 -10 5 -10 10 0 6 5
10 10 10 6 0 10 -4 10 -10z m17144 -56 c21 -21 20 -29 -6 -53 -17 -17 -24 -18
-37 -8 -26 20 -29 28 -17 53 13 27 38 31 60 8z m-186 -41 c-10 -2 -28 -2 -40
0 -13 2 -5 4 17 4 22 1 32 -1 23 -4z m-145 -10 c-7 -2 -19 -2 -25 0 -7 3 -2 5
12 5 14 0 19 -2 13 -5z m-320 -20 c-7 -2 -19 -2 -25 0 -7 3 -2 5 12 5 14 0 19
-2 13 -5z m-655 -12 c18 -11 11 -51 -10 -65 -35 -22 -71 27 -45 62 11 14 36
16 55 3z m515 2 c-7 -2 -19 -2 -25 0 -7 3 -2 5 12 5 14 0 19 -2 13 -5z m-156
-9 c-3 -3 -12 -4 -19 -1 -8 3 -5 6 6 6 11 1 17 -2 13 -5z m-150 -10 c-3 -3
-12 -4 -19 -1 -8 3 -5 6 6 6 11 1 17 -2 13 -5z m-15333 -56 c14 -23 -3 -52
-32 -56 -29 -4 -51 40 -32 63 16 20 49 16 64 -7z m16976 -21 c0 -2 -15 -16
-32 -33 l-33 -29 29 33 c28 30 36 37 36 29z m-16280 -21 c0 -8 -5 -18 -11 -22
-14 -8 -33 11 -25 25 10 16 36 13 36 -3z m2347 -182 c7 -18 -17 -38 -31 -24
-11 11 -1 40 14 40 6 0 13 -7 17 -16z m13350 -86 c-2 -18 -4 -4 -4 32 0 36 2
50 4 33 2 -18 2 -48 0 -65z m-2270 46 c8 -21 -13 -42 -28 -27 -13 13 -5 43 11
43 6 0 13 -7 17 -16z m903 -79 c0 -19 -20 -29 -32 -17 -8 8 -7 16 2 26 14 17
30 12 30 -9z m-16061 -89 c9 -10 8 -16 -4 -26 -19 -16 -41 1 -32 24 8 20 21
20 36 2z m17418 -163 c-3 -10 -5 -4 -5 12 0 17 2 24 5 18 2 -7 2 -21 0 -30z
m-722 -33 c13 -42 -36 -70 -65 -35 -13 15 -4 59 10 50 5 -3 11 -1 15 4 8 14
33 2 40 -19z m722 -12 c-3 -8 -6 -5 -6 6 -1 11 2 17 5 13 3 -3 4 -12 1 -19z
m-524 -15 c-7 -2 -19 -2 -25 0 -7 3 -2 5 12 5 14 0 19 -2 13 -5z m230 -10
c-13 -2 -33 -2 -45 0 -13 2 -3 4 22 4 25 0 35 -2 23 -4z m307 -13 c0 -11 -6
-20 -14 -20 -18 0 -29 16 -21 30 11 18 35 11 35 -10z m-97 3 c-7 -2 -19 -2
-25 0 -7 3 -2 5 12 5 14 0 19 -2 13 -5z m-4024 -202 c75 -43 314 -181 531
-306 217 -126 425 -246 463 -267 l67 -39 0 -632 1 -632 267 -153 c147 -84 391
-224 542 -312 l275 -158 3 -705 2 -704 -27 -12 c-15 -7 -99 -54 -187 -106
-137 -79 -602 -347 -895 -517 -46 -26 -89 -48 -95 -48 -11 0 -132 69 -790 449
-277 160 -301 172 -325 161 -14 -6 -151 -85 -306 -174 -632 -366 -754 -436
-765 -436 -6 0 -149 80 -318 177 -169 97 -437 252 -597 344 l-290 167 -3 701
-2 700 32 17 c18 9 159 90 313 179 154 89 385 222 513 296 l232 134 0 630 0
631 328 189 c180 103 361 208 402 232 341 200 467 271 479 272 7 1 75 -34 150
-78z m1241 -11 c0 -5 -4 -10 -10 -10 -5 0 -10 5 -10 10 0 6 5 10 10 10 6 0 10
-4 10 -10z m2660 -106 c0 -8 -5 -12 -10 -9 -6 4 -8 11 -5 16 9 14 15 11 15 -7z
m-12830 -6829 l0 -1945 -560 0 -560 0 0 695 0 695 -415 0 -415 0 0 555 0 555
415 0 415 0 0 140 0 140 -552 -2 -553 -3 -3 -1387 -2 -1388 -555 0 -555 0 0
1945 0 1945 1670 0 1670 0 0 -1945z m4180 1390 l0 -555 -555 0 -555 0 0 -1390
0 -1390 -560 0 -560 0 0 1390 0 1390 -555 0 -555 0 0 555 0 555 1670 0 1670 0
0 -555z m4180 0 l0 -555 -555 -2 -555 -3 0 -1387 0 -1388 -560 0 -560 0 0
1390 0 1390 -555 0 -555 0 0 555 0 555 1670 0 1670 0 0 -555z m4180 0 l0 -555
-555 0 -555 0 0 -1390 0 -1390 -560 0 -560 0 0 1390 0 1390 -555 0 -555 0 0
555 0 555 1670 0 1670 0 0 -555z m-16510 -3199 c0 -11 -19 -15 -25 -6 -3 5 1
10 9 10 9 0 16 -2 16 -4z m2660 -106 c0 -5 -4 -10 -10 -10 -5 0 -10 5 -10 10
0 6 5 10 10 10 6 0 10 -4 10 -10z m-2865 -200 c8 -13 -14 -42 -26 -34 -5 3 -9
14 -9 25 0 20 24 26 35 9z m757 -17 c24 -21 23 -50 -2 -63 -43 -23 -83 27 -50
60 24 24 28 25 52 3z m-639 0 c-13 -2 -35 -2 -50 0 -16 2 -5 4 22 4 28 0 40
-2 28 -4z m205 -10 c-10 -2 -28 -2 -40 0 -13 2 -5 4 17 4 22 1 32 -1 23 -4z
m225 -10 c-13 -2 -33 -2 -45 0 -13 2 -3 4 22 4 25 0 35 -2 23 -4z m-566 -70
c-3 -10 -5 -2 -5 17 0 19 2 27 5 18 2 -10 2 -26 0 -35z m17450 -129 c7 -18
-17 -38 -31 -24 -11 11 -1 40 14 40 6 0 13 -7 17 -16z m-16061 -107 c1 -11 -5
-17 -17 -17 -10 0 -19 6 -19 13 0 31 31 34 36 4z m-1399 -104 c-2 -16 -4 -3
-4 27 0 30 2 43 4 28 2 -16 2 -40 0 -55z m-327 54 c0 -2 -12 -14 -27 -28 l-28
-24 24 28 c23 25 31 32 31 24z m2628 -19 c-2 -13 -10 -23 -18 -23 -8 0 -16 10
-18 23 -3 17 2 22 18 22 16 0 21 -5 18 -22z m11082 -43 c0 -19 -20 -29 -32
-17 -8 8 -7 16 2 26 14 17 30 12 30 -9z m-13840 -78 c0 -2 -10 -12 -22 -23
l-23 -19 19 23 c18 21 26 27 26 19z m18210 -51 c0 -2 -8 -10 -17 -17 -16 -13
-17 -12 -4 4 13 16 21 21 21 13z m-2024 -47 c9 -16 -12 -33 -31 -25 -14 5 -15
9 -5 21 15 18 26 19 36 4z m728 -21 c15 -25 -3 -52 -37 -56 -21 -3 -28 2 -33
22 -12 49 43 76 70 34z m-15140 -54 c19 -19 20 -36 4 -52 -17 -17 -42 -15 -61
6 -15 16 -15 20 -1 40 18 26 37 28 58 6z m-101 -31 c-7 -2 -19 -2 -25 0 -7 3
-2 5 12 5 14 0 19 -2 13 -5z m-275 -20 c-10 -2 -28 -2 -40 0 -13 2 -5 4 17 4
22 1 32 -1 23 -4z m-915 -45 c6 -17 -13 -58 -27 -58 -16 0 -56 29 -56 41 0 5
9 18 20 29 16 16 25 18 39 10 11 -5 21 -15 24 -22z m614 26 c-3 -3 -12 -4 -19
-1 -8 3 -5 6 6 6 11 1 17 -2 13 -5z m-160 -10 c-3 -3 -12 -4 -19 -1 -8 3 -5 6
6 6 11 1 17 -2 13 -5z m-150 -10 c-3 -3 -12 -4 -19 -1 -8 3 -5 6 6 6 11 1 17
-2 13 -5z m-154 -11 c-7 -2 -19 -2 -25 0 -7 3 -2 5 12 5 14 0 19 -2 13 -5z
m15481 -89 c36 -36 35 -82 -2 -117 -56 -54 -142 -18 -142 59 0 76 89 112 144
58z m1466 -4 c0 -5 -4 -10 -10 -10 -5 0 -10 5 -10 10 0 6 5 10 10 10 6 0 10
-4 10 -10z m-3316 -256 c20 -19 20 -38 1 -54 -23 -19 -65 -4 -65 23 0 43 35
60 64 31z m-11411 -8 c3 -7 1 -18 -5 -24 -13 -13 -38 -4 -38 13 0 12 13 22 31
24 4 1 9 -5 12 -13z m14777 -50 c0 -2 -8 -10 -17 -17 -16 -13 -17 -12 -4 4 13
16 21 21 21 13z m-13691 -50 c10 -12 8 -17 -8 -25 -22 -12 -37 0 -27 24 7 19
20 19 35 1z m13581 -69 c0 -2 -10 -12 -22 -23 l-23 -19 19 23 c18 21 26 27 26
19z m-2569 -55 c5 -28 5 -51 0 -50 -3 1 -15 -3 -25 -7 -27 -12 -60 29 -46 56
7 11 16 16 27 12 11 -5 14 -3 8 6 -6 10 -3 11 14 2 11 -7 22 -15 22 -19z
m-14157 7 c57 -26 44 -120 -17 -127 -37 -5 -87 36 -77 63 4 11 6 23 4 27 -5 7
44 48 57 48 4 0 19 -5 33 -11z m1477 -39 c34 -19 18 -70 -22 -70 -25 0 -42 26
-35 55 7 27 25 31 57 15z m14024 -9 c12 -40 -30 -76 -60 -51 -15 13 -20 51 -8
63 14 15 62 7 68 -12z m-14777 -18 c-42 -2 -114 -2 -160 0 -46 1 -11 3 77 3
88 0 125 -2 83 -3z m14635 -10 c-7 -2 -19 -2 -25 0 -7 3 -2 5 12 5 14 0 19 -2
13 -5z m-420 -16 c3 -8 1 -20 -3 -27 -11 -18 -41 5 -33 26 7 18 29 18 36 1z
m270 6 c-7 -2 -19 -2 -25 0 -7 3 -2 5 12 5 14 0 19 -2 13 -5z m1397 4 c0 -2
-10 -12 -22 -23 l-23 -19 19 23 c18 21 26 27 26 19z m-1557 -14 c-7 -2 -21 -2
-30 0 -10 3 -4 5 12 5 17 0 24 -2 18 -5z m-10847 -92 c-10 -16 -36 -13 -43 5
-8 22 18 37 36 20 7 -8 10 -19 7 -25z m-1422 13 c20 -19 20 -38 1 -54 -21 -17
-65 -4 -65 19 0 20 25 51 40 51 5 0 16 -7 24 -16z m9326 -48 c0 -18 -30 -30
-43 -17 -5 5 -6 14 -3 20 10 16 46 13 46 -3z m-7430 -6 c0 -5 -4 -10 -10 -10
-5 0 -10 5 -10 10 0 6 5 10 10 10 6 0 10 -4 10 -10z m-3815 -70 c3 -5 1 -10
-4 -10 -6 0 -11 5 -11 10 0 6 2 10 4 10 3 0 8 -4 11 -10z m2570 -10 c-3 -5 0
-7 9 -4 19 7 31 -32 16 -51 -7 -8 -21 -15 -31 -15 -18 0 -49 25 -49 40 0 14
30 40 46 40 8 0 12 -4 9 -10z m12940 -22 c4 4 5 -8 2 -25 -3 -21 -1 -33 6 -34
7 0 -3 -5 -21 -10 -54 -16 -82 22 -46 62 12 13 21 16 34 9 10 -5 21 -6 25 -2z
m-3795 -63 c0 -21 -19 -28 -36 -15 -10 9 -11 16 -3 26 12 15 39 8 39 -11z
m789 -132 c-9 -11 -10 -14 -2 -9 9 5 11 2 7 -8 -5 -13 -10 -13 -39 2 -31 16
-31 17 -11 24 11 3 29 6 40 7 16 1 17 -1 5 -16z m3331 -49 c0 -2 -9 0 -20 6
-11 6 -20 13 -20 16 0 2 9 0 20 -6 11 -6 20 -13 20 -16z m-4410 -57 c0 -2 -10
-12 -22 -23 l-23 -19 19 23 c18 21 26 27 26 19z m2889 -16 c20 -13 22 -56 2
-68 -19 -12 -59 0 -67 21 -14 37 30 69 65 47z m-10449 -71 c14 -26 -6 -57 -37
-57 -25 0 -41 33 -29 62 8 22 53 19 66 -5z m6354 -22 c8 -13 6 -22 -8 -37 -24
-27 -48 -27 -64 0 -11 18 -11 24 4 40 21 23 52 21 68 -3z m4083 -20 c-3 -8 -6
-5 -6 6 -1 11 2 17 5 13 3 -3 4 -12 1 -19z m1927 -30 c-3 -5 1 -8 8 -8 7 0 2
-7 -11 -16 -32 -23 -73 -2 -69 35 4 35 48 46 65 17 6 -11 9 -24 7 -28z m-8424
-40 c0 -15 -32 -21 -40 -7 -13 20 9 43 26 28 8 -6 14 -16 14 -21z m6507 0 c-3
-8 -6 -5 -6 6 -1 11 2 17 5 13 3 -3 4 -12 1 -19z m-3160 -51 c13 -15 15 -21 5
-24 -6 -3 -10 -9 -7 -13 3 -5 -3 -14 -14 -19 -14 -8 -24 -6 -40 8 -25 22 -26
29 -6 51 20 22 41 21 62 -3z m-10227 -2 c10 -12 10 -19 2 -27 -15 -15 -43 8
-35 28 7 18 17 18 33 -1z m8386 -24 c-22 -21 -46 0 -26 24 10 12 16 13 27 3
12 -10 12 -13 -1 -27z m-8749 -27 c-3 -3 -12 -4 -19 -1 -8 3 -5 6 6 6 11 1 17
-2 13 -5z m-90 -10 c-3 -3 -12 -4 -19 -1 -8 3 -5 6 6 6 11 1 17 -2 13 -5z
m-90 -10 c-3 -3 -12 -4 -19 -1 -8 3 -5 6 6 6 11 1 17 -2 13 -5z m1235 -19 c9
-21 9 -29 -5 -42 -13 -14 -21 -14 -42 -5 -27 12 -33 40 -13 60 20 20 48 14 60
-13z m3216 8 c5 -17 -26 -29 -40 -15 -6 6 -7 15 -3 22 9 14 37 9 43 -7z m2241
3 c9 -10 8 -16 -4 -26 -20 -16 -38 -1 -29 23 8 21 18 22 33 3z m-6782 -2 c-3
-3 -12 -4 -19 -1 -8 3 -5 6 6 6 11 1 17 -2 13 -5z m-80 -10 c-3 -3 -12 -4 -19
-1 -8 3 -5 6 6 6 11 1 17 -2 13 -5z m-500 -56 c1 -28 -4 -37 -19 -41 -27 -8
-46 1 -54 25 -8 25 20 56 50 54 19 -1 22 -7 23 -38z m6627 11 c-8 -14 -34 -11
-34 4 0 8 3 17 7 20 9 9 34 -13 27 -24z m-3334 -22 c39 -33 10 -95 -44 -93
-51 3 -73 59 -36 96 23 23 52 21 80 -3z m11337 -19 c-3 -8 -6 -5 -6 6 -1 11 2
17 5 13 3 -3 4 -12 1 -19z m1259 0 c3 -5 3 -20 0 -34 -6 -24 -27 -30 -60 -18
-21 8 -21 50 0 62 19 10 51 5 60 -10z m-11176 -38 c-11 -7 -19 -5 -27 7 -18
23 6 38 27 17 13 -13 13 -16 0 -24z m8410 6 c6 -8 10 -25 8 -38 -6 -42 -78
-32 -78 11 0 37 46 55 70 27z m1517 -38 c-3 -8 -6 -5 -6 6 -1 11 2 17 5 13 3
-3 4 -12 1 -19z m-15325 -11 c12 -19 -9 -52 -35 -55 -18 -2 -29 3 -37 18 -23
43 45 78 72 37z m6732 -62 c-4 -8 -8 -15 -10 -15 -2 0 -4 7 -4 15 0 8 4 15 10
15 5 0 7 -7 4 -15z m8603 -7 c-3 -8 -6 -5 -6 6 -1 11 2 17 5 13 3 -3 4 -12 1
-19z m-3666 -15 c30 -18 46 -64 35 -100 -9 -30 -62 -56 -97 -48 -59 13 -83 62
-56 118 21 46 69 58 118 30z m-4540 -44 c25 -48 -35 -96 -86 -69 -30 16 -37
43 -18 70 31 44 80 43 104 -1z m-2023 -7 c6 -44 -34 -67 -64 -38 -29 30 -11
64 34 62 20 -1 28 -7 30 -24z m5007 -20 c19 -13 17 -50 -3 -61 -21 -11 -45 2
-55 30 -10 29 31 51 58 31z m-6248 -8 c-3 -3 -12 -4 -19 -1 -8 3 -5 6 6 6 11
1 17 -2 13 -5z m9127 -13 c14 -15 15 -24 6 -40 -15 -28 -56 -28 -71 1 -10 18
-8 24 11 40 28 23 33 22 54 -1z m-6894 -41 c0 -14 -33 -21 -41 -8 -12 19 10
41 27 27 8 -6 14 -15 14 -19z m2794 -29 c10 -11 15 -25 11 -30 -3 -6 -1 -11 5
-11 7 0 6 -5 -2 -14 -7 -8 -15 -10 -16 -5 -2 6 -10 5 -18 -2 -11 -9 -18 -8
-33 5 -21 19 -22 36 -2 60 18 21 34 20 55 -3z m6492 -120 c-4 -5 -3 -11 1 -14
5 -2 2 -2 -4 -1 -7 2 -13 -1 -13 -5 0 -5 6 -12 13 -14 9 -4 9 -6 -1 -6 -19 -1
-27 30 -11 40 18 11 22 11 15 0z m-674 -90 c-27 -23 -28 -35 -2 -28 11 3 18 1
14 -4 -8 -13 -42 -11 -47 4 -5 15 22 46 42 46 9 1 7 -6 -7 -18z m-10492 -77
c0 -3 -7 -1 -15 6 -8 7 -15 17 -15 22 0 5 7 3 15 -6 8 -8 15 -18 15 -22z
m-895 -4 c3 -5 1 -10 -4 -10 -6 0 -11 5 -11 10 0 6 2 10 4 10 3 0 8 -4 11 -10z
m885 -14 c0 -2 -7 -7 -16 -10 -8 -3 -12 -2 -9 4 6 10 25 14 25 6z m-3670 -41
c-16 -20 0 -19 28 1 12 8 22 13 22 10 0 -3 -11 -13 -25 -22 -28 -18 -53 -10
-34 12 6 8 14 14 16 14 3 0 0 -7 -7 -15z m10050 1 c0 -2 -7 -7 -16 -10 -8 -3
-12 -2 -9 4 6 10 25 14 25 6z"/>
<path d="M14290 14526 c-69 -40 -307 -178 -530 -306 -223 -128 -411 -238 -418
-244 -9 -9 -12 -145 -10 -638 l3 -625 370 213 c387 224 652 377 696 402 25 14
31 12 155 -61 180 -104 555 -321 769 -443 l180 -103 3 617 c1 339 0 622 -2
628 -2 6 -60 42 -127 81 -68 39 -209 120 -314 180 -461 267 -645 373 -647 373
-2 -1 -59 -34 -128 -74z m147 -28 c-2 -13 -4 -3 -4 22 0 25 2 35 4 23 2 -13 2
-33 0 -45z"/>
<path d="M13700 12314 l0 -405 253 3 c247 3 253 3 297 28 86 48 136 166 111
258 -14 51 -58 104 -107 127 l-36 17 30 18 c33 20 82 110 82 149 0 54 -23 107
-64 147 -24 25 -58 46 -81 53 -24 6 -130 11 -262 11 l-223 0 0 -406z m415 262
c59 -25 74 -93 31 -143 -24 -28 -26 -28 -155 -31 l-131 -4 0 96 0 96 110 0
c73 0 122 -5 145 -14z m56 -354 c37 -41 40 -98 6 -137 -28 -34 -79 -44 -214
-45 l-103 0 0 111 0 111 141 -4 141 -3 29 -33z"/>
<path d="M14510 12315 l0 -405 80 0 80 0 0 122 0 121 65 68 c42 43 68 63 72
56 5 -7 53 -91 109 -187 l101 -175 106 -3 107 -3 -111 173 c-61 95 -133 207
-160 248 l-48 75 57 60 c31 33 100 104 152 158 l95 97 -111 0 -111 0 -159
-176 -159 -177 -3 177 -2 176 -80 0 -80 0 0 -405z"/>
<path d="M15518 12077 l-3 -631 -140 -82 c-77 -44 -321 -186 -543 -314 l-403
-233 43 -24 c24 -14 61 -35 83 -47 22 -13 153 -88 290 -168 474 -276 660 -381
670 -381 6 0 100 52 210 115 558 321 794 458 838 484 l47 29 0 627 0 626 -187
108 c-104 60 -349 201 -545 315 l-358 207 -2 -631z m367 -847 c3 -6 -1 -7 -9
-4 -18 7 -21 14 -7 14 6 0 13 -4 16 -10z"/>
<path d="M13285 12681 c-43 -26 -350 -203 -410 -236 -27 -16 -81 -47 -120 -70
-38 -23 -170 -99 -292 -170 l-223 -128 0 -631 0 -631 178 -101 c97 -56 341
-197 542 -313 201 -116 371 -209 378 -206 12 4 219 123 880 506 l204 117 -69
40 c-37 21 -142 82 -233 135 -364 211 -775 447 -783 450 -5 1 -8 285 -8 630 1
345 -2 627 -6 627 -5 0 -21 -9 -38 -19z"/>
<path d="M14673 11759 c-90 -26 -123 -179 -56 -259 51 -61 159 -61 202 -1 26
37 26 48 0 56 -17 6 -27 0 -46 -24 -29 -36 -68 -41 -104 -12 -19 15 -24 30
-27 84 -4 60 -2 68 21 91 35 34 79 35 106 1 15 -20 25 -24 45 -19 14 3 26 10
26 14 0 20 -45 60 -78 70 -43 11 -46 11 -89 -1z"/>
<path d="M13640 11740 c0 -17 7 -20 45 -20 l45 0 0 -130 0 -130 31 0 30 0 -2
128 -1 127 46 3 c38 3 46 7 46 23 0 18 -8 19 -120 19 -113 0 -120 -1 -120 -20z"/>
<path d="M13925 11610 l0 -150 27 0 c26 0 27 2 30 58 l3 57 61 3 c77 4 107 29
107 92 0 44 -27 84 -50 75 -8 -2 -11 0 -8 5 4 6 -26 10 -82 10 l-88 0 0 -150z
m153 94 c47 -33 14 -84 -55 -84 l-43 0 0 50 0 50 38 0 c21 0 48 -7 60 -16z"/>
<path d="M14280 11609 l0 -150 27 3 c26 3 27 5 27 67 l1 65 65 -1 65 0 1 -64
c1 -61 2 -64 28 -67 l26 -3 0 150 0 151 -27 0 c-28 0 -28 0 -25 -60 l4 -60
-71 0 -71 0 3 60 4 60 -29 0 -28 0 0 -151z"/>
<path d="M14904 11610 l0 -150 25 0 26 0 -3 115 c-2 63 1 115 5 115 5 0 22
-52 37 -115 27 -113 29 -115 56 -115 27 0 29 2 56 115 15 63 32 115 37 115 4
0 7 -52 5 -115 l-3 -115 27 0 26 0 1 150 2 150 -45 0 -45 0 -14 -47 c-8 -27
-20 -72 -27 -100 -8 -29 -17 -53 -20 -53 -3 0 -18 44 -31 98 l-25 97 -45 3
-45 3 0 -151z"/>
<path d="M14160 11485 c0 -20 5 -25 25 -25 20 0 25 5 25 25 0 20 -5 25 -25 25
-20 0 -25 -5 -25 -25z"/>
</g>
</svg>
